<svg width="96" height="96" viewBox="0 0 96 96" fill="none" xmlns="http://www.w3.org/2000/svg">
<path d="M10 0C4.486 0 0 4.6809 0 10.4345V60.5198C0 66.2734 4.486 70.9543 10 70.9543H18.2812C18.9592 76.9958 17.2507 81.0936 12.9727 83.7732C12.2027 84.2553 11.8342 85.2173 12.0742 86.1209C12.3122 87.0246 13.1 87.6494 14 87.6494C19.12 87.6494 31.4152 85.9904 37.3672 70.9543H52.3594C52.5914 69.5164 52.9405 68.1245 53.3945 66.7805H36C35.162 66.7805 34.4111 67.3258 34.1211 68.146C30.8391 77.4869 24.8379 81.2004 19.9219 82.6278C22.2839 78.9779 22.9707 74.2481 21.9688 68.4924C21.7948 67.5011 20.966 66.7805 20 66.7805H10C6.692 66.7805 4 63.9716 4 60.5198V10.4345C4 6.98274 6.692 4.17378 10 4.17378H82C85.308 4.17378 88 6.98274 88 10.4345V53.4603C89.436 54.3284 90.772 55.3491 92 56.4969V10.4345C92 4.6809 87.514 0 82 0H10ZM76 54.2836C70.8735 54.2836 65.7484 56.3151 61.8594 60.3731C54.0814 68.489 54.0814 81.7671 61.8594 89.8831C69.6374 97.999 82.3626 97.999 90.1406 89.8831C97.9186 81.7671 97.9186 68.489 90.1406 60.3731C86.2516 56.3151 81.1265 54.2836 76 54.2836ZM76 58.4533C80.1013 58.4533 84.2015 60.0779 87.3125 63.3241C93.5345 69.8164 93.5345 80.4397 87.3125 86.9321C81.0885 93.4244 70.9095 93.4244 64.6875 86.9321C58.4655 80.4377 58.4655 69.8164 64.6875 63.3241C67.7995 60.0779 71.8987 58.4533 76 58.4533ZM76 62.7331C74.868 62.7331 74.0195 63.6184 74.0195 64.7996V73.0616H66.1016C64.9696 73.0616 64.1211 73.9469 64.1211 75.1281C64.1211 76.3093 64.9696 77.1946 66.1016 77.1946H74.0195V85.4566C74.0195 86.6377 74.868 87.5231 76 87.5231C76.566 87.5231 77.1321 87.2263 77.4141 86.9321C77.6981 86.6378 77.9805 86.0472 77.9805 85.4566V77.1946H85.8984C86.4644 77.1946 87.0305 76.8978 87.3125 76.6036C87.5965 76.3093 87.8789 75.7187 87.8789 75.1281C87.8789 73.9469 87.0304 73.0616 85.8984 73.0616H77.9805V64.7996C77.9805 63.6205 77.132 62.7331 76 62.7331Z" fill="#03B3FF"/>
</svg>
