<svg width="100" height="100" viewBox="0 0 100 100" fill="none" xmlns="http://www.w3.org/2000/svg">
<path d="M52.0833 16.6667H47.9167V29.1667H52.0833V16.6667Z" fill="url(#paint0_linear_408_26)"/>
<path d="M12.5 56.25H16.6666V77.0833H12.5C11.132 77.0833 9.7775 76.8139 8.51369 76.2904C7.24989 75.7669 6.10156 74.9996 5.13428 74.0324C3.18078 72.0789 2.08331 69.4293 2.08331 66.6667C2.08331 63.904 3.18078 61.2545 5.13428 59.301C7.08779 57.3475 9.73731 56.25 12.5 56.25Z" fill="url(#paint1_linear_408_26)"/>
<path d="M83.3333 56.25H87.5C90.2627 56.25 92.9122 57.3475 94.8657 59.301C96.8192 61.2545 97.9166 63.904 97.9166 66.6667C97.9166 69.4293 96.8192 72.0789 94.8657 74.0324C92.9122 75.9859 90.2627 77.0833 87.5 77.0833H83.3333V56.25Z" fill="url(#paint2_linear_408_26)"/>
<path d="M50 27.0833C59.9456 27.0833 69.4839 31.0342 76.5165 38.0668C83.5491 45.0994 87.5 54.6377 87.5 64.5833V81.25C87.5 82.3551 87.061 83.4149 86.2796 84.1963C85.4982 84.9777 84.4384 85.4167 83.3333 85.4167H16.6667C15.5616 85.4167 14.5018 84.9777 13.7204 84.1963C12.939 83.4149 12.5 82.3551 12.5 81.25V64.5833C12.5 54.6377 16.4509 45.0994 23.4835 38.0668C30.5161 31.0342 40.0544 27.0833 50 27.0833Z" fill="#199BE2"/>
<path d="M33.3333 77.0833C40.2369 77.0833 45.8333 71.4869 45.8333 64.5833C45.8333 57.6798 40.2369 52.0833 33.3333 52.0833C26.4298 52.0833 20.8333 57.6798 20.8333 64.5833C20.8333 71.4869 26.4298 77.0833 33.3333 77.0833Z" fill="url(#paint3_linear_408_26)"/>
<path d="M66.6667 77.0833C73.5702 77.0833 79.1667 71.4869 79.1667 64.5833C79.1667 57.6798 73.5702 52.0833 66.6667 52.0833C59.7631 52.0833 54.1667 57.6798 54.1667 64.5833C54.1667 71.4869 59.7631 77.0833 66.6667 77.0833Z" fill="url(#paint4_linear_408_26)"/>
<path d="M66.6667 72.9167C71.269 72.9167 75 69.1857 75 64.5833C75 59.981 71.269 56.25 66.6667 56.25C62.0643 56.25 58.3333 59.981 58.3333 64.5833C58.3333 69.1857 62.0643 72.9167 66.6667 72.9167Z" fill="white"/>
<path d="M66.6667 68.75C68.9679 68.75 70.8333 66.8845 70.8333 64.5833C70.8333 62.2821 68.9679 60.4167 66.6667 60.4167C64.3655 60.4167 62.5 62.2821 62.5 64.5833C62.5 66.8845 64.3655 68.75 66.6667 68.75Z" fill="url(#paint5_linear_408_26)"/>
<path d="M33.3333 72.9167C37.9357 72.9167 41.6667 69.1857 41.6667 64.5833C41.6667 59.981 37.9357 56.25 33.3333 56.25C28.731 56.25 25 59.981 25 64.5833C25 69.1857 28.731 72.9167 33.3333 72.9167Z" fill="white"/>
<path d="M33.3333 68.75C35.6345 68.75 37.5 66.8845 37.5 64.5833C37.5 62.2821 35.6345 60.4167 33.3333 60.4167C31.0321 60.4167 29.1667 62.2821 29.1667 64.5833C29.1667 66.8845 31.0321 68.75 33.3333 68.75Z" fill="url(#paint6_linear_408_26)"/>
<path d="M50 20.8333C52.3012 20.8333 54.1667 18.9679 54.1667 16.6667C54.1667 14.3655 52.3012 12.5 50 12.5C47.6988 12.5 45.8333 14.3655 45.8333 16.6667C45.8333 18.9679 47.6988 20.8333 50 20.8333Z" fill="#199BE2"/>
<defs>
<linearGradient id="paint0_linear_408_26" x1="50" y1="18.9771" x2="50" y2="28.2667" gradientUnits="userSpaceOnUse">
<stop stop-color="#0077D2"/>
<stop offset="1" stop-color="#0B59A2"/>
</linearGradient>
<linearGradient id="paint1_linear_408_26" x1="9.37498" y1="55.6604" x2="9.37498" y2="87.0542" gradientUnits="userSpaceOnUse">
<stop stop-color="#03B3FF"/>
<stop offset="1" stop-color="#0B59A2"/>
</linearGradient>
<linearGradient id="paint2_linear_408_26" x1="90.625" y1="55.6604" x2="90.625" y2="87.0542" gradientUnits="userSpaceOnUse">
<stop stop-color="#03B3FF"/>
<stop offset="1" stop-color="#0B59A2"/>
</linearGradient>
<linearGradient id="paint3_linear_408_26" x1="33.3333" y1="52.1958" x2="33.3333" y2="90.6146" gradientUnits="userSpaceOnUse">
<stop stop-color="#0077D2"/>
<stop offset="1" stop-color="#0B59A2"/>
</linearGradient>
<linearGradient id="paint4_linear_408_26" x1="66.6667" y1="52.1958" x2="66.6667" y2="90.6146" gradientUnits="userSpaceOnUse">
<stop stop-color="#0077D2"/>
<stop offset="1" stop-color="#0B59A2"/>
</linearGradient>
<linearGradient id="paint5_linear_408_26" x1="66.6667" y1="52.1958" x2="66.6667" y2="90.6146" gradientUnits="userSpaceOnUse">
<stop stop-color="#03B3FF"/>
<stop offset="1" stop-color="#0B59A2"/>
</linearGradient>
<linearGradient id="paint6_linear_408_26" x1="33.3333" y1="52.1958" x2="33.3333" y2="90.6146" gradientUnits="userSpaceOnUse">
<stop stop-color="#03B3FF"/>
<stop offset="1" stop-color="#0B59A2"/>
</linearGradient>
</defs>
</svg>
